<?xml version="1.0" standalone="no"?>
<!DOCTYPE svg PUBLIC "-//W3C//DTD SVG 20010904//EN"
 "http://www.w3.org/TR/2001/REC-SVG-20010904/DTD/svg10.dtd">
<svg version="1.0" xmlns="http://www.w3.org/2000/svg"
 width="400.000000pt" height="400.000000pt" viewBox="0 0 400.000000 400.000000"
 preserveAspectRatio="xMidYMid meet">
<metadata>
Created by potrace 1.15, written by Peter Selinger 2001-2017
</metadata>
<g transform="translate(0.000000,400.000000) scale(0.100000,-0.100000)"
fill="#000000" stroke="none">
<path d="M0 2000 l0 -2000 2000 0 2000 0 0 2000 0 2000 -2000 0 -2000 0 0
-2000z m2232 1241 c263 -53 472 -164 658 -351 380 -380 478 -962 241 -1439
-83 -169 -211 -333 -270 -346 -62 -13 -120 34 -121 101 0 33 7 49 43 91 140
163 224 339 257 535 18 111 8 330 -20 433 -63 232 -199 437 -383 576 -212 160
-487 239 -741 211 -117 -13 -142 -8 -175 34 -48 61 -13 136 74 159 78 21 324
19 437 -4z m-896 -240 c36 -22 59 -70 50 -105 -3 -14 -57 -75 -119 -138 -90
-90 -126 -134 -175 -217 -149 -253 -186 -525 -111 -818 27 -108 116 -282 192
-379 150 -189 374 -326 616 -376 82 -17 121 -19 268 -15 191 6 203 3 229 -59
12 -29 12 -39 0 -68 -19 -45 -47 -62 -127 -75 -157 -26 -381 -5 -556 54 -196
66 -349 160 -493 305 -244 245 -370 547 -370 891 0 268 71 498 222 721 51 76
198 229 255 267 54 36 76 38 119 12z m839 -305 c33 -9 98 -35 145 -58 70 -36
88 -50 103 -80 24 -49 9 -101 -37 -129 -44 -27 -65 -24 -153 20 -158 80 -305
82 -458 7 -154 -76 -274 -257 -275 -413 0 -88 -36 -133 -106 -133 -37 0 -51 5
-75 29 -25 26 -29 37 -29 86 0 88 28 203 70 290 103 212 290 352 527 395 65
12 215 4 288 -14z m-133 -556 c49 -14 89 -66 95 -123 13 -112 -108 -193 -208
-142 -71 37 -94 154 -42 216 27 31 73 58 103 59 8 0 32 -5 52 -10z m630 -59
c33 -29 33 -30 31 -112 -8 -293 -227 -564 -519 -645 -101 -28 -246 -30 -344
-5 -105 26 -220 81 -254 122 -36 43 -35 92 3 129 48 48 73 48 165 2 97 -49
146 -61 247 -62 209 0 400 135 468 332 11 31 17 59 14 62 -4 3 -35 6 -70 6
-58 0 -68 3 -94 29 -23 23 -29 38 -29 71 0 33 6 48 29 71 l29 29 146 0 146 0
32 -29z"/>
</g>
</svg>
