<svg xmlns="http://www.w3.org/2000/svg"
     width="10mm" height="10mm"
     viewBox="0 0 159 165">
  <path id="Selection"
        fill="none" stroke="black" stroke-width="9"
        d="M 42.00,83.00
           C 42.00,83.00 10.00,83.00 10.00,83.00
             10.03,85.45 9.89,87.74 11.02,90.00
             12.36,92.68 16.76,96.76 19.00,99.00
             19.00,99.00 35.00,115.00 35.00,115.00
             35.00,115.00 65.00,145.00 65.00,145.00
             67.72,147.72 74.68,155.41 78.00,156.34
             81.30,157.27 83.75,154.99 86.00,152.94
             86.00,152.94 102.00,137.00 102.00,137.00
             102.00,137.00 136.00,103.00 136.00,103.00
             138.98,100.02 148.32,91.50 149.34,88.02
             150.73,83.31 146.28,83.07 143.00,83.00
             143.00,83.00 118.00,83.00 118.00,83.00
             118.00,83.00 118.00,27.00 118.00,27.00
             117.99,18.58 118.19,16.06 109.00,16.00
             109.00,16.00 51.00,16.00 51.00,16.00
             42.36,16.02 42.02,16.36 42.00,25.00
             42.00,25.00 42.00,83.00 42.00,83.00 Z" />
</svg>
