<svg xmlns="http://www.w3.org/2000/svg"
     width="10mm" height="10mm"
     viewBox="0 0 191 167">
  <path id="Selection"
        fill="none" stroke="black" stroke-width="10"
        d="M 95.00,121.00
           C 95.00,121.00 151.00,121.00 151.00,121.00
             159.42,120.99 161.94,121.19 162.00,112.00
             162.00,112.00 162.00,54.00 162.00,54.00
             161.98,45.36 161.64,45.02 153.00,45.00
             153.00,45.00 95.00,45.00 95.00,45.00
             95.00,45.00 95.00,13.00 95.00,13.00
             92.55,13.03 90.26,12.89 88.00,14.02
             85.32,15.36 81.24,19.76 79.00,22.00
             79.00,22.00 63.00,38.00 63.00,38.00
             63.00,38.00 33.00,68.00 33.00,68.00
             30.28,70.72 22.59,77.68 21.66,81.00
             20.73,84.30 23.01,86.75 25.06,89.00
             25.06,89.00 41.00,105.00 41.00,105.00
             41.00,105.00 75.00,139.00 75.00,139.00
             77.98,141.98 86.50,151.32 89.98,152.34
             94.69,153.73 94.93,149.28 95.00,146.00
             95.00,146.00 95.00,121.00 95.00,121.00 Z" />
</svg>
