<svg xmlns="http://www.w3.org/2000/svg"
     width="10mm" height="10mm"
     viewBox="0 0 250 283">
  <path id="Selection"
        fill="black" stroke="black" stroke-width="10"
        d="M 164.04,24.61
           C 158.01,27.11 157.08,31.98 157.00,38.00
             157.00,38.00 157.00,75.00 157.00,75.00
             157.00,75.00 157.00,232.00 157.00,232.00
             157.01,236.47 156.88,241.11 159.70,244.89
             163.72,250.30 171.49,250.20 174.57,243.96
             176.10,240.85 175.99,236.41 176.00,233.00
             176.00,233.00 176.00,76.00 176.00,76.00
             176.00,76.00 176.00,39.00 176.00,39.00
             175.90,30.97 173.63,23.66 164.04,24.61 Z
           M 82.04,25.61
           C 76.01,28.11 75.08,32.98 75.00,39.00
             75.00,39.00 75.00,76.00 75.00,76.00
             75.00,76.00 75.00,233.00 75.00,233.00
             75.01,237.47 74.88,242.11 77.70,245.89
             81.72,251.30 89.49,251.20 92.57,244.96
             94.10,241.85 93.99,237.41 94.00,234.00
             94.00,234.00 94.00,77.00 94.00,77.00
             94.00,77.00 94.00,40.00 94.00,40.00
             93.90,31.97 91.63,24.66 82.04,25.61 Z" />
</svg>
