<svg xmlns="http://www.w3.org/2000/svg"
     width="10mm" height="10mm"
     viewBox="0 0 905 338">
  <path id="Selection"
        fill="black" stroke="black" stroke-width="10"
        d="M 333.59,57.04
           C 330.87,60.81 332.00,68.34 332.00,73.00
             332.00,73.00 332.00,111.00 332.00,111.00
             332.00,111.00 332.00,260.00 332.00,260.00
             332.01,263.17 331.48,268.99 335.21,270.34
             339.61,271.94 339.94,266.85 340.00,264.00
             340.00,264.00 340.00,232.00 340.00,232.00
             340.00,232.00 340.00,105.00 340.00,105.00
             340.00,105.00 340.00,68.00 340.00,68.00
             339.99,63.54 340.61,54.64 333.59,57.04 Z
           M 251.59,58.04
           C 248.87,61.81 250.00,69.34 250.00,74.00
             250.00,74.00 250.00,112.00 250.00,112.00
             250.00,112.00 250.00,261.00 250.00,261.00
             250.01,264.17 249.48,269.99 253.21,271.34
             257.61,272.94 257.94,267.85 258.00,265.00
             258.00,265.00 258.00,233.00 258.00,233.00
             258.00,233.00 258.00,106.00 258.00,106.00
             258.00,106.00 258.00,69.00 258.00,69.00
             257.99,64.54 258.61,55.64 251.59,58.04 Z" />
</svg>
