<svg xmlns="http://www.w3.org/2000/svg"
     width="10mm" height="10mm"
     viewBox="0 0 164 145">
  <path id="Selection"
        fill="black" stroke="black" stroke-width="10"
        d="M 9.60,11.11
           C 7.49,13.89 8.01,15.59 8.00,19.00
             8.00,19.00 8.00,42.00 8.00,42.00
             8.00,42.00 8.00,124.00 8.00,124.00
             8.00,126.11 7.62,130.58 9.60,131.89
             11.66,133.25 15.95,131.22 18.00,130.40
             18.00,130.40 38.00,122.20 38.00,122.20
             38.00,122.20 126.00,86.15 126.00,86.15
             126.00,86.15 148.00,77.01 148.00,77.01
             150.05,76.16 154.84,74.63 155.83,72.63
             157.71,68.84 149.39,66.58 147.00,65.58
             147.00,65.58 112.00,51.20 112.00,51.20
             112.00,51.20 77.00,36.80 77.00,36.80
             77.00,36.80 29.00,17.20 29.00,17.20
             24.03,15.21 14.58,9.80 9.60,11.11 Z
           M 14.00,16.00
           C 14.00,16.00 80.00,43.42 80.00,43.42
             80.00,43.42 123.00,61.01 123.00,61.01
             123.00,61.01 148.00,71.00 148.00,71.00
             148.00,71.00 107.00,88.42 107.00,88.42
             107.00,88.42 13.00,127.00 13.00,127.00
             13.00,127.00 13.00,50.00 13.00,50.00
             13.00,50.00 13.00,28.00 13.00,28.00
             13.00,28.00 14.00,16.00 14.00,16.00 Z" />
</svg>
