<svg xmlns="http://www.w3.org/2000/svg"
     width="10mm" height="10mm"
     viewBox="0 0 218 219">
  <path id="Selection"
        fill="black" stroke="black" stroke-width="10"
        d="M 111.00,37.15
           C 108.43,31.62 103.36,27.49 98.00,25.00
             106.91,22.47 120.93,24.75 130.00,26.60
             172.43,35.27 207.05,71.61 207.00,116.00
             206.94,165.95 159.06,205.43 111.00,206.00
             72.28,206.45 38.04,189.20 18.58,155.00
             12.55,144.40 8.15,129.23 8.00,117.00
             7.85,103.59 10.94,88.82 17.44,77.00
             17.44,77.00 32.00,53.86 32.00,53.86
             30.56,53.70 29.76,53.24 28.17,53.86
             24.84,54.70 19.37,62.96 17.44,66.00
             8.78,79.60 3.19,96.80 3.00,113.00
             2.46,159.60 34.71,196.02 79.00,207.37
             86.04,209.17 95.77,210.91 103.00,211.00
             134.08,211.36 163.92,201.79 185.96,179.00
             225.14,138.50 219.32,74.08 174.00,40.75
             169.41,37.38 152.68,27.34 147.72,25.50
             147.72,25.50 141.00,23.99 141.00,23.99
             122.76,19.18 116.55,19.00 98.00,19.00
             100.81,16.90 111.76,8.58 112.83,5.97
             114.88,1.00 108.79,3.49 107.00,4.72
             104.82,6.22 91.74,16.96 90.59,18.59
             88.27,21.90 90.66,24.46 93.06,26.83
             95.42,29.17 104.09,36.59 107.00,37.15
             108.78,37.74 109.40,37.33 111.00,37.15 Z" />
</svg>
