<svg xmlns="http://www.w3.org/2000/svg"
     width="10mm" height="10mm"
     viewBox="0 0 181 157">
  <path id="Selection"
        fill="none" stroke="black" stroke-width="10"
        d="M 85.00,39.00
           C 85.00,39.00 29.00,39.00 29.00,39.00
             20.58,39.01 18.06,38.81 18.00,48.00
             18.00,48.00 18.00,106.00 18.00,106.00
             18.02,114.64 18.36,114.98 27.00,115.00
             27.00,115.00 85.00,115.00 85.00,115.00
             85.00,115.00 85.00,147.00 85.00,147.00
             87.45,146.97 89.74,147.11 92.00,145.98
             94.68,144.64 98.76,140.24 101.00,138.00
             101.00,138.00 117.00,122.00 117.00,122.00
             117.00,122.00 147.00,92.00 147.00,92.00
             149.72,89.28 157.41,82.32 158.34,79.00
             159.27,75.70 156.99,73.25 154.94,71.00
             154.94,71.00 139.00,55.00 139.00,55.00
             139.00,55.00 105.00,21.00 105.00,21.00
             102.02,18.02 93.50,8.68 90.02,7.66
             85.31,6.27 85.07,10.72 85.00,14.00
             85.00,14.00 85.00,39.00 85.00,39.00 Z" />
</svg>
