<svg xmlns="http://www.w3.org/2000/svg"
     width="10mm" height="10mm"
     viewBox="0 0 149 153">
  <path id="Selection"
        fill="none" stroke="black" stroke-width="8"
        d="M 36.00,81.00
           C 36.00,81.00 36.00,137.00 36.00,137.00
             36.01,145.42 35.81,147.94 45.00,148.00
             45.00,148.00 103.00,148.00 103.00,148.00
             111.64,147.98 111.98,147.64 112.00,139.00
             112.00,139.00 112.00,81.00 112.00,81.00
             112.00,81.00 136.00,81.00 136.00,81.00
             138.43,81.00 143.28,81.51 144.34,78.69
             146.06,74.12 134.13,64.13 131.00,61.00
             131.00,61.00 93.00,23.00 93.00,23.00
             89.81,19.81 79.57,8.66 76.00,7.66
             72.70,6.73 70.25,9.01 68.00,11.06
             68.00,11.06 52.00,27.00 52.00,27.00
             52.00,27.00 18.00,61.00 18.00,61.00
             15.02,63.98 5.68,72.50 4.66,75.98
             3.27,80.69 7.72,80.93 11.00,81.00
             11.00,81.00 36.00,81.00 36.00,81.00 Z" />
</svg>
